<?xml version="1.0" encoding="UTF-8"?><svg xmlns="http://www.w3.org/2000/svg" xmlns:xlink="http://www.w3.org/1999/xlink" fill-opacity="1" color-rendering="auto" color-interpolation="auto" text-rendering="auto" stroke="black" stroke-linecap="square" width="690" stroke-miterlimit="10" shape-rendering="auto" stroke-opacity="1" fill="black" stroke-dasharray="none" font-weight="normal" stroke-width="1" height="125" font-family="'Dialog'" font-style="normal" stroke-linejoin="miter" font-size="12px" stroke-dashoffset="0" image-rendering="auto">
  <!--Generated by ySVG 2.5-->
  <defs id="genericDefs"/>
  <g>
    <defs id="defs1">
      <clipPath clipPathUnits="userSpaceOnUse" id="clipPath1">
        <path d="M0 0 L690 0 L690 125 L0 125 L0 0 Z"/>
      </clipPath>
      <clipPath clipPathUnits="userSpaceOnUse" id="clipPath2">
        <path d="M265 265 L955 265 L955 390 L265 390 L265 265 Z"/>
      </clipPath>
    </defs>
    <g fill="white" text-rendering="geometricPrecision" shape-rendering="geometricPrecision" transform="translate(-265,-265)" stroke="white">
      <rect x="265" width="690" height="125" y="265" clip-path="url(#clipPath2)" stroke="none"/>
    </g>
    <g stroke-linecap="butt" transform="matrix(1,0,0,1,-265,-265)" fill="silver" text-rendering="geometricPrecision" shape-rendering="geometricPrecision" stroke="silver" stroke-miterlimit="1.45">
      <rect x="280" y="280" clip-path="url(#clipPath2)" fill="none" width="660" rx="4" ry="4" height="70"/>
    </g>
    <g fill="rgb(153,153,170)" text-rendering="geometricPrecision" shape-rendering="geometricPrecision" transform="matrix(1,0,0,1,-265,-265)" stroke="rgb(153,153,170)">
      <rect x="300" y="300" clip-path="url(#clipPath2)" width="100" rx="4" ry="4" height="30" stroke="none"/>
    </g>
    <g stroke-linecap="butt" transform="matrix(1,0,0,1,-265,-265)" fill="white" text-rendering="geometricPrecision" font-family="sans-serif" shape-rendering="geometricPrecision" stroke="white" stroke-miterlimit="1.45">
      <text x="336.6348" xml:space="preserve" y="319.5352" clip-path="url(#clipPath2)" stroke="none">Data</text>
    </g>
    <g fill="rgb(153,153,170)" text-rendering="geometricPrecision" shape-rendering="geometricPrecision" transform="matrix(1,0,0,1,-265,-265)" stroke="rgb(153,153,170)">
      <rect x="430" y="300" clip-path="url(#clipPath2)" width="100" rx="4" ry="4" height="30" stroke="none"/>
    </g>
    <g stroke-linecap="butt" transform="matrix(1,0,0,1,-265,-265)" fill="white" text-rendering="geometricPrecision" font-family="sans-serif" shape-rendering="geometricPrecision" stroke="white" stroke-miterlimit="1.45">
      <text x="462.2139" xml:space="preserve" y="319.5352" clip-path="url(#clipPath2)" stroke="none">Filters</text>
    </g>
    <g fill="rgb(153,153,170)" text-rendering="geometricPrecision" shape-rendering="geometricPrecision" transform="matrix(1,0,0,1,-265,-265)" stroke="rgb(153,153,170)">
      <rect x="560" y="300" clip-path="url(#clipPath2)" width="100" rx="4" ry="4" height="30" stroke="none"/>
    </g>
    <g stroke-linecap="butt" transform="matrix(1,0,0,1,-265,-265)" fill="white" text-rendering="geometricPrecision" font-family="sans-serif" shape-rendering="geometricPrecision" stroke="white" stroke-miterlimit="1.45">
      <text x="588.168" xml:space="preserve" y="319.5352" clip-path="url(#clipPath2)" stroke="none">Mapper</text>
    </g>
    <g fill="rgb(153,153,170)" text-rendering="geometricPrecision" shape-rendering="geometricPrecision" transform="matrix(1,0,0,1,-265,-265)" stroke="rgb(153,153,170)">
      <rect x="690" y="300" clip-path="url(#clipPath2)" width="100" rx="4" ry="4" height="30" stroke="none"/>
    </g>
    <g stroke-linecap="butt" transform="matrix(1,0,0,1,-265,-265)" fill="white" text-rendering="geometricPrecision" font-family="sans-serif" shape-rendering="geometricPrecision" stroke="white" stroke-miterlimit="1.45">
      <text x="724.4023" xml:space="preserve" y="319.5352" clip-path="url(#clipPath2)" stroke="none">Actor</text>
    </g>
    <g fill="rgb(170,153,153)" text-rendering="geometricPrecision" shape-rendering="geometricPrecision" transform="matrix(1,0,0,1,-265,-265)" stroke="rgb(170,153,153)">
      <rect x="820" y="300" clip-path="url(#clipPath2)" width="100" rx="4" ry="4" height="30" stroke="none"/>
    </g>
    <g stroke-linecap="butt" transform="matrix(1,0,0,1,-265,-265)" fill="white" text-rendering="geometricPrecision" font-family="sans-serif" shape-rendering="geometricPrecision" stroke="white" stroke-miterlimit="1.45">
      <text x="850.5791" xml:space="preserve" y="319.5352" clip-path="url(#clipPath2)" stroke="none">Viewer</text>
      <text fill="gray" x="840.3662" xml:space="preserve" y="369.5352" clip-path="url(#clipPath2)" stroke="none">Rendering</text>
      <text fill="gray" x="312.6377" xml:space="preserve" y="369.5352" clip-path="url(#clipPath2)" stroke="none">Visualization</text>
      <path fill="none" d="M399.9878 315 L422.0314 315" clip-path="url(#clipPath2)" stroke="silver"/>
      <path fill="silver" d="M430.0314 315 L418.0314 310 L421.0314 315 L418.0314 320 Z" clip-path="url(#clipPath2)" stroke="none"/>
      <path fill="none" d="M529.9878 315 L552.0314 315" clip-path="url(#clipPath2)" stroke="silver"/>
      <path fill="silver" d="M560.0314 315 L548.0314 310 L551.0314 315 L548.0314 320 Z" clip-path="url(#clipPath2)" stroke="none"/>
      <path fill="none" d="M659.9878 315 L682.0314 315" clip-path="url(#clipPath2)" stroke="silver"/>
      <path fill="silver" d="M690.0314 315 L678.0314 310 L681.0314 315 L678.0314 320 Z" clip-path="url(#clipPath2)" stroke="none"/>
      <path fill="none" d="M789.9878 315 L812.0314 315" clip-path="url(#clipPath2)" stroke="silver"/>
      <path fill="silver" d="M820.0314 315 L808.0314 310 L811.0314 315 L808.0314 320 Z" clip-path="url(#clipPath2)" stroke="none"/>
    </g>
  </g>
</svg>
