<?xml version="1.0" encoding="UTF-8"?><svg xmlns="http://www.w3.org/2000/svg" xmlns:xlink="http://www.w3.org/1999/xlink" fill-opacity="1" color-rendering="auto" color-interpolation="auto" text-rendering="auto" stroke="black" stroke-linecap="square" width="650" stroke-miterlimit="10" shape-rendering="auto" stroke-opacity="1" fill="black" stroke-dasharray="none" font-weight="normal" stroke-width="1" height="100" font-family="'Dialog'" font-style="normal" stroke-linejoin="miter" font-size="12px" stroke-dashoffset="0" image-rendering="auto">
  <!--Generated by ySVG 2.5-->
  <defs id="genericDefs"/>
  <g>
    <defs id="defs1">
      <clipPath clipPathUnits="userSpaceOnUse" id="clipPath1">
        <path d="M0 0 L650 0 L650 100 L0 100 L0 0 Z"/>
      </clipPath>
      <clipPath clipPathUnits="userSpaceOnUse" id="clipPath2">
        <path d="M285 285 L935 285 L935 385 L285 385 L285 285 Z"/>
      </clipPath>
    </defs>
    <g fill="rgb(221,221,221)" text-rendering="geometricPrecision" shape-rendering="geometricPrecision" transform="matrix(1,0,0,1,-285,-285)" stroke="rgb(221,221,221)">
      <rect x="300" y="300" clip-path="url(#clipPath2)" width="100" rx="4" ry="4" height="30" stroke="none"/>
    </g>
    <g stroke-linecap="butt" transform="matrix(1,0,0,1,-285,-285)" fill="rgb(53,58,63)" text-rendering="geometricPrecision" font-family="'Roboto'" shape-rendering="geometricPrecision" stroke="rgb(53,58,63)" stroke-miterlimit="1.45">
      <text x="337.5781" xml:space="preserve" y="319.1016" clip-path="url(#clipPath2)" stroke="none">Data</text>
    </g>
    <g fill="rgb(221,221,221)" text-rendering="geometricPrecision" shape-rendering="geometricPrecision" transform="matrix(1,0,0,1,-285,-285)" stroke="rgb(221,221,221)">
      <rect x="430" y="300" clip-path="url(#clipPath2)" width="100" rx="4" ry="4" height="30" stroke="none"/>
    </g>
    <g stroke-linecap="butt" transform="matrix(1,0,0,1,-285,-285)" fill="rgb(53,58,63)" text-rendering="geometricPrecision" font-family="'Roboto'" shape-rendering="geometricPrecision" stroke="rgb(53,58,63)" stroke-miterlimit="1.45">
      <text x="463.5088" xml:space="preserve" y="319.1016" clip-path="url(#clipPath2)" stroke="none">Filters</text>
    </g>
    <g fill="rgb(221,221,221)" text-rendering="geometricPrecision" shape-rendering="geometricPrecision" transform="matrix(1,0,0,1,-285,-285)" stroke="rgb(221,221,221)">
      <rect x="560" y="300" clip-path="url(#clipPath2)" width="100" rx="4" ry="4" height="30" stroke="none"/>
    </g>
    <g stroke-linecap="butt" transform="matrix(1,0,0,1,-285,-285)" fill="rgb(53,58,63)" text-rendering="geometricPrecision" font-family="'Roboto'" shape-rendering="geometricPrecision" stroke="rgb(53,58,63)" stroke-miterlimit="1.45">
      <text x="589.5566" xml:space="preserve" y="319.1016" clip-path="url(#clipPath2)" stroke="none">Mapper</text>
    </g>
    <g fill="rgb(221,221,221)" text-rendering="geometricPrecision" shape-rendering="geometricPrecision" transform="matrix(1,0,0,1,-285,-285)" stroke="rgb(221,221,221)">
      <rect x="690" y="300" clip-path="url(#clipPath2)" width="100" rx="4" ry="4" height="30" stroke="none"/>
    </g>
    <g stroke-linecap="butt" transform="matrix(1,0,0,1,-285,-285)" fill="rgb(53,58,63)" text-rendering="geometricPrecision" font-family="'Roboto'" shape-rendering="geometricPrecision" stroke="rgb(53,58,63)" stroke-miterlimit="1.45">
      <text x="725.5332" xml:space="preserve" y="319.1016" clip-path="url(#clipPath2)" stroke="none">Actor</text>
    </g>
    <g fill="rgb(252,252,252)" text-rendering="geometricPrecision" shape-rendering="geometricPrecision" transform="matrix(1,0,0,1,-285,-285)" stroke="rgb(252,252,252)">
      <rect x="820" y="300" clip-path="url(#clipPath2)" width="100" rx="4" ry="4" height="30" stroke="none"/>
    </g>
    <g stroke-linecap="butt" transform="matrix(1,0,0,1,-285,-285)" fill="rgb(221,221,221)" text-rendering="geometricPrecision" shape-rendering="geometricPrecision" stroke="rgb(221,221,221)" stroke-miterlimit="1.45">
      <rect x="820" y="300" clip-path="url(#clipPath2)" fill="none" width="100" rx="4" ry="4" height="30"/>
      <text x="851.8301" y="319.1016" clip-path="url(#clipPath2)" fill="rgb(53,58,63)" font-family="'Roboto'" stroke="none" xml:space="preserve">Viewer</text>
      <text x="826" y="364.1016" clip-path="url(#clipPath2)" fill="rgb(138,138,143)" font-family="'Roboto'" stroke="none" xml:space="preserve">Rendering</text>
      <text x="306" y="364.1016" clip-path="url(#clipPath2)" fill="rgb(138,138,143)" font-family="'Roboto'" stroke="none" xml:space="preserve">Visualization</text>
      <path fill="none" d="M399.9878 315 L419.0314 315" clip-path="url(#clipPath2)"/>
      <path d="M430.0314 315 L418.0314 309 L418.0314 321 Z" clip-path="url(#clipPath2)" stroke="none"/>
      <path fill="none" d="M529.9878 315 L549.0314 315" clip-path="url(#clipPath2)"/>
      <path d="M560.0314 315 L548.0314 309 L548.0314 321 Z" clip-path="url(#clipPath2)" stroke="none"/>
      <path fill="none" d="M659.9878 315 L679.0314 315" clip-path="url(#clipPath2)"/>
      <path d="M690.0314 315 L678.0314 309 L678.0314 321 Z" clip-path="url(#clipPath2)" stroke="none"/>
      <path fill="none" d="M789.9878 315 L809.0314 315" clip-path="url(#clipPath2)"/>
      <path d="M820.0314 315 L808.0314 309 L808.0314 321 Z" clip-path="url(#clipPath2)" stroke="none"/>
    </g>
  </g>
</svg>
